<svg xmlns="http://www.w3.org/2000/svg" viewBox="0 0 400 500" width="400" height="500">
  <rect width="400" height="500" fill="#2C2C2C" rx="8"/>
  <rect x="20" y="20" width="360" height="460" fill="#1a1a1a" rx="4" stroke="#3a3a3a" stroke-width="1"/>
  <!-- T-shirt outline -->
  <path d="M140 160 L120 180 L100 170 L80 200 L110 210 L110 300 L200 300 L200 340 L290 340 L290 210 L320 200 L300 170 L280 180 L260 160 Z" fill="none" stroke="#C9A84C" stroke-width="2" opacity="0.5"/>
  <!-- Hanger -->
  <path d="M180 130 Q200 110 220 130" fill="none" stroke="#C9A84C" stroke-width="2" opacity="0.5"/>
  <line x1="200" y1="115" x2="200" y2="100" stroke="#C9A84C" stroke-width="2" opacity="0.5"/>
  <circle cx="200" cy="97" r="4" fill="none" stroke="#C9A84C" stroke-width="2" opacity="0.5"/>
  <!-- Chess pawn watermark -->
  <circle cx="200" cy="240" r="15" fill="#C9A84C" opacity="0.15"/>
  <path d="M185 258 Q200 265 215 258 L218 290 Q200 295 182 290 Z" fill="#C9A84C" opacity="0.15"/>
  <rect x="178" y="290" width="44" height="8" rx="3" fill="#C9A84C" opacity="0.15"/>
  <!-- Text -->
  <text x="200" y="400" font-family="Georgia, serif" font-size="14" fill="#C9A84C" text-anchor="middle" opacity="0.6">7th Rank Apparel</text>
  <text x="200" y="425" font-family="Arial, sans-serif" font-size="11" fill="#666" text-anchor="middle">Product Image</text>
</svg>
