<svg width="507" height="528" viewBox="0 0 507 528" fill="none" xmlns="http://www.w3.org/2000/svg" opacity="0.18">
<path d="M365.37 4.96563L375.372 12.4023L363.227 25.5856C354.296 35.3885 347.152 41.135 345.366 38.4308C343.937 36.0646 339.293 34.3744 335.007 34.3744C330.72 34.3744 322.504 31.3321 316.432 27.6138C301.072 17.8108 289.284 19.163 276.781 31.3321C267.851 40.459 264.636 41.4731 253.205 39.783C237.488 37.4167 230.701 42.4872 227.486 59.0508C224.628 73.9242 203.195 93.8682 164.974 117.868C103.533 155.728 29.5898 222.659 9.22863 258.49C-19.7056 308.519 22.4455 359.562 93.1737 359.9C122.465 360.238 157.472 351.111 157.472 343.674C157.472 335.561 151.042 334.885 131.753 340.294C83.8862 353.815 37.8057 340.294 19.5878 307.505C6.01372 283.166 17.4445 263.899 80.314 204.743C118.536 168.911 140.683 150.996 172.118 131.39C213.912 105.361 235.702 85.0793 242.132 66.4875C244.989 57.6987 247.49 56.0085 262.493 54.3184C275.352 52.9662 281.068 50.2619 287.498 42.8252L295.714 33.0223L308.216 40.459C315.36 44.5154 323.219 47.8957 326.434 47.8957C339.651 47.8957 370.014 90.4878 387.874 134.77L397.876 159.108L375.015 183.785C334.65 226.715 289.641 284.18 289.641 292.631C289.641 294.659 292.856 291.279 296.785 285.533C307.859 267.955 345.366 224.349 374.658 194.94L401.091 167.897L399.305 184.799C398.234 193.926 399.305 210.489 401.091 221.306C403.949 235.504 403.592 242.264 400.734 244.969C395.733 249.701 395.376 258.49 400.377 255.786C402.52 254.772 403.949 256.8 403.949 260.518C403.949 265.251 401.806 267.617 396.805 267.617C392.875 267.617 389.661 269.307 389.661 271.335C389.661 273.363 402.163 276.524 406.092 277.538C410.736 278.552 403.949 281.476 403.949 286.209C403.949 291.279 401.091 294.998 396.805 296.35C387.517 299.054 396.448 302.249 406.092 304.615C410.379 305.967 403.592 314.265 402.52 317.308C401.449 320.012 400.377 329.815 400.377 338.942C400.377 348.069 398.948 355.505 396.805 355.505C395.019 355.505 393.233 353.139 393.233 350.435C393.233 347.731 391.804 345.364 389.661 345.364C385.017 345.364 385.017 356.857 390.018 372.745C395.733 389.647 390.375 409.253 369.299 449.14C353.939 478.887 352.51 480.577 341.794 480.577C326.434 480.577 309.645 464.352 296.785 436.633C290.355 423.45 278.567 412.971 269.637 412.971C260.349 412.971 229.272 425.816 204.267 439.675C195.337 445.084 164.974 460.972 137.111 475.507C108.891 489.704 86.0294 502.211 86.0294 502.888C86.0294 504.24 122.108 488.014 142.826 476.859C177.119 458.943 251.776 423.45 261.421 420.07C270.709 417.027 272.495 417.703 282.497 429.196C288.212 435.957 293.213 442.718 293.213 444.07C293.213 448.802 315.36 477.197 322.862 482.268C327.148 484.972 335.007 487.338 340.365 487.338C349.653 487.338 350.01 488.014 346.081 494.099C342.508 499.169 342.508 501.535 345.723 504.578C350.724 509.31 360.369 503.564 364.656 492.747C366.442 487.676 372.872 484.972 388.232 481.93C399.663 479.901 421.453 475.507 436.098 472.127C450.744 468.746 472.534 464.352 483.965 462.324C495.753 459.957 505.755 456.577 506.826 454.211C508.613 449.14 496.467 449.14 477.178 453.873C469.319 455.901 453.959 459.281 443.243 461.986C432.526 464.352 413.237 469.084 400.734 471.789C388.232 474.831 377.158 476.859 376.444 475.845C375.729 475.169 380.016 464.014 386.446 451.507C392.875 438.661 399.663 422.436 402.163 414.999L406.092 401.816L416.094 416.689C423.596 428.182 425.382 429.534 424.31 423.112C423.239 418.379 418.595 410.422 416.094 404.337C411.808 394.534 405.021 381.281 412.522 374.52C419.309 367.76 429.668 378.154 433.955 382.548C438.599 387.28 449.315 403.844 459.674 423.45C467.533 437.309 481.464 447.788 488.609 445.084C494.681 443.056 494.324 442.38 487.537 440.013C482.893 438.323 473.248 425.816 464.675 410.605C456.102 396.069 446.1 380.858 441.814 376.463L417.88 369.661L446.539 355.505C456.899 346.716 460.448 351.788 457.233 348.745C454.375 346.041 443.558 339.618 427.483 355.505L412.522 371.351V374.52V364.632C413.594 356.857 415.023 335.653 416.094 324.836C418.238 306.245 422.167 308.181 432.526 308.181C450.744 308.181 461.675 310.463 469.935 322.97C469.935 325.675 474.945 331.843 476.731 330.829C470.269 324.445 476.731 317.055 469.935 311.561C466.363 309.871 455.031 302.817 444.671 301.465L416.094 296.35L444.671 286.209C462.532 277.758 457.233 267.618 469.935 269.096C478.933 270.144 466.819 263.899 445.386 265.927C422.881 268.293 412.522 273.025 416.094 267.617C414.665 262.546 418.238 249.701 418.952 249.363C419.666 249.025 423.297 243.617 428.656 240.575C428.656 240.575 438.39 234.828 441.605 240.575C444.82 245.645 446.457 248.349 446.815 242.264C446.815 237.532 448.483 227.687 460.271 227.687C466.701 225.659 482.238 216.237 485.81 213.532C492.597 208.462 476.722 216.912 469.935 212.18C466.363 209.475 458.96 207.025 444.671 204.659C415.023 200.265 410.529 205.419 425.532 181.419C431.962 171.278 434.928 163.442 441.605 164.942C453.645 167.646 476.433 172.63 476.433 149.306C476.433 130.038 427.988 112.46 450.758 125.005C454.33 125.005 409.412 152.935 407.983 150.569C400.838 137.386 390.375 105.226 390.375 103.26C390.375 101.293 387.442 103.927 403.874 94.4622C417.805 86.6874 432.599 81.954 428.656 83.9822C426.512 78.7064 437.475 73.2482 428.656 76.9665C418.654 84.0652 412.626 80.6849 407.983 70.882C402.624 59.3888 397.876 60.7105 411.093 52.9357C420.738 47.1892 434.014 52.9669 428.656 51.2768C425.532 47.8957 415.38 41.1358 400.377 51.2768L374.658 74.6003L365.013 61.079C356.083 49.924 353.998 43.1633 371.502 27.6138C382.874 22.7388 375.372 12.4023 394.662 25.5856C404.664 31.6702 406.103 39.1069 406.103 34.3744C406.103 28.9659 371.502 0.233849 363.227 0.233116C356.44 0.571159 356.44 -2.13306 365.37 4.96563ZM403.874 74.6003L414.791 83.9822L400.377 91.1639L387.874 97.8578L382.874 87.7836L375.729 76.9665L385.374 70.882C390.732 67.5016 398.918 61.079 401.418 61.079C401.418 61.079 399.945 69.1918 403.874 74.6003ZM471.298 149.306C471.298 154.038 466.388 157.799 464.602 160.504C460.271 161.587 444.671 164.62 432.898 156.081V145.751L444.671 137.834L450.758 134.77C459.737 134.77 469.62 136.073 471.298 149.306ZM421.095 171.616L416.809 181.419L411.808 162.32C411.093 155.222 422.674 150.996 425.532 149.306C432.371 142.599 426.811 159.446 421.095 171.616ZM444.671 216.574C446.1 224.941 434.669 229.081 425.025 233.814C418.952 237.194 416.809 234.49 416.809 221.983C416.809 210.827 414.665 206.349 420.381 206.349C424.31 206.349 443.242 212.856 444.671 216.574ZM460.271 221.306C450.626 226.377 444.671 224.941 444.671 216.574C444.671 214.884 449.195 210.827 457.233 212.18L464.602 216.574L460.271 221.306ZM438.956 281.138C432.169 285.533 416.452 289.927 416.452 285.533C416.452 283.504 445.668 271.335 450.312 271.335C456.742 271.335 443.242 278.434 438.956 281.138Z" fill="#B8CDD8"/>
<path d="M280.354 128.347C263.565 142.883 238.202 170.263 248.562 162.827C252.491 160.122 264.636 150.658 275.353 142.207C286.069 133.418 297.143 125.981 300 124.967C303.93 123.953 303.93 123.277 300 119.897C296.071 117.192 291.784 118.882 280.354 128.347Z" fill="#B8CDD8"/>
<path d="M329.292 202.377C322.862 219.279 292.856 246.321 276.067 250.378C268.923 252.406 249.633 255.448 233.559 257.138C215.341 259.166 197.48 263.899 186.764 268.969C163.902 279.786 146.041 296.688 147.47 305.815C149.256 316.632 155.329 315.956 161.044 304.125C168.546 288.575 204.624 272.012 235.702 269.307C248.561 268.293 264.636 265.927 271.066 264.575C277.139 262.885 282.497 262.209 282.497 262.885C282.497 264.913 167.831 387.619 160.687 392.689C153.543 398.098 68.5261 488.69 56.0236 504.24C33.5192 531.959 33.5192 532.635 57.0953 520.465C68.8833 514.381 77.8136 508.972 77.0992 508.296C76.3848 507.62 72.0982 508.972 67.4544 511.339C59.5957 515.057 67.4544 506.606 123.894 450.155C275.352 298.04 339.651 223.335 339.651 200.011C339.651 186.151 335.007 187.165 329.292 202.377Z" fill="#B8CDD8"/>
</svg>
